<?xml version="1.0" encoding="utf-8"?>
<!-- Generator: Adobe Illustrator 21.1.0, SVG Export Plug-In . SVG Version: 6.00 Build 0)  -->
<svg version="1.1" id="Слой_1" xmlns="http://www.w3.org/2000/svg" xmlns:xlink="http://www.w3.org/1999/xlink" x="0px" y="0px"
	 viewBox="0 0 232 41.1" style="enable-background:new 0 0 232 41.1;" xml:space="preserve">
<style type="text/css">
	.st0{fill:#276FDB;}
	.st1{fill:#434448;}
	.st2{fill:#3B3A3A;}
</style>
<g>
	<g transform="translate(-319 -1583)">
		<g>
			<path id="_x33_g58a" class="st0" d="M336.8,1624.1l-9-5.2v-30.7l9-5.2l12.3,7.1l-20.5,12.8v0.1l21.1,13.6L336.8,1624.1z
				 M319,1613.8v-20.5l7.8-4.5v29.5L319,1613.8z"/>
		</g>
	</g>
	<g transform="translate(-319 -1583)">
		<g>
			<path id="_x33_g58b" class="st1" d="M341,1596.3l9.1-5.7l4.5,2.6v20.7l-3.9,2.2l-9.7-6.3L341,1596.3z"/>
		</g>
	</g>
	<g transform="translate(-319 -1583)">
		<g>
			<path id="_x33_g58c" class="st2" d="M363,1598h2.5v5.3l4-5.3h3.2l-4.6,6.2l5.1,6.8H370l-3.5-4.7l-1,1.3v3.4H363V1598z M374,1598
				h7.7v2.6h-5.1v2.6h5.1v2.6h-5.1v2.6h5.1v2.6H374V1598z M382.9,1611v-13h3.8c2.1,0,3.8,1.8,3.8,3.9c0,1.4-0.8,2.7-2,3.4l2.5,5.7
				h-2.8l-2.3-5.2h-0.5v5.2L382.9,1611z M385.4,1603.2h1.3c0.7,0,1.3-0.6,1.3-1.3c0-0.7-0.6-1.3-1.3-1.3h-1.3V1603.2z M400,1598h2.5
				v13h-3l-5.1-8.7v8.7h-2.5v-13h3l5.1,8.7L400,1598z M403.7,1598h7.7v2.6h-5.1v2.6h5.1v2.6h-5.1v2.6h5.1v2.6h-7.7V1598z
				 M412.5,1598h2.5v10.4h4.6v2.6h-7.2V1598z M430.5,1611l-4.6-13h2.7l3.2,9.2l3.2-9.2h2.7l-4.6,13H430.5z M438.6,1598h2.5v13h-2.5
				V1598z M442.3,1598h3.6c3.5,0,6.4,2.9,6.4,6.5s-2.9,6.5-6.4,6.5h-3.5L442.3,1598z M445.9,1608.4c2.1,0,3.8-1.7,3.8-3.9
				c0-2.1-1.7-3.9-3.8-3.9h-1v7.8H445.9z M453.4,1598h7.7v2.6h-5.1v2.6h5.1v2.6h-5.1v2.6h5.1v2.6h-7.7V1598z M475,1604.5
				c0,3.6-2.9,6.5-6.4,6.5c-3.5,0-6.4-3-6.4-6.5c0-3.6,2.9-6.5,6.4-6.5C472.1,1598,475,1600.9,475,1604.5z M464.8,1604.5
				c0,2.1,1.7,3.9,3.8,3.9c0,0,0,0,0,0c2.1,0,3.8-1.8,3.8-3.9s-1.7-3.9-3.8-3.9C466.5,1600.6,464.7,1602.4,464.8,1604.5
				C464.8,1604.5,464.8,1604.5,464.8,1604.5L464.8,1604.5z M481.2,1601.9c0-2.2,1.7-3.9,3.8-3.9c1.5,0,2.8,0.5,3.9,1.4l-1.8,1.9
				c-0.6-0.4-1.3-0.6-2.1-0.6c-0.7,0-1.3,0.6-1.3,1.3c0,0.3,0.1,0.6,0.3,0.8c0.4,0.5,1.1,0.6,1.7,0.6c2.1,0.1,3.7,1.6,3.7,3.8
				c0,2.1-1.7,3.9-3.8,3.9c-1.6,0-3.2-0.6-4.4-1.8l1.8-1.8c0.7,0.7,1.6,1.1,2.6,1.1c0.7,0,1.2-0.6,1.2-1.3c0-0.4-0.1-0.8-0.5-1
				c-0.6-0.4-1.6-0.2-2.2-0.4C482.3,1605.2,481.1,1603.7,481.2,1601.9L481.2,1601.9z M490.5,1598h2.5v5.2h4.6v-5.2h2.5v13h-2.5v-5.2
				h-4.6v5.2h-2.5V1598z M510.3,1611l-1.3-3.6h-3.9l-1.3,3.6h-2.7l4.6-13h2.7l4.6,13H510.3z M507,1601.8l-1,2.9h2.1L507,1601.8z
				 M513.8,1611v-13h3.8c2.1,0,3.8,1.8,3.8,3.9c0,1.4-0.8,2.7-2,3.4l2.5,5.7h-2.8l-2.3-5.2h-0.5v5.2L513.8,1611z M516.3,1603.2h1.3
				c0.7,0,1.3-0.6,1.3-1.3c0-0.7-0.6-1.3-1.3-1.3h-1.3V1603.2z M522.8,1598h2.5v13h-2.5L522.8,1598z M534.6,1598h2.5v13h-3l-5.1-8.7
				v8.7h-2.5v-13h3l5.1,8.7L534.6,1598z M549,1599.8l-1.8,1.8c-0.7-0.7-1.6-1-2.6-1c-2.1,0-3.8,1.8-3.8,3.9c0,0,0,0,0,0
				c0,2.1,1.7,3.9,3.8,3.9c1.2,0,2.3-0.6,3-1.6h-3v-2.6h6.3l0,0.2c0,3.6-2.9,6.5-6.4,6.5c-3.5,0-6.4-3-6.4-6.5
				c0-3.6,2.8-6.5,6.4-6.5C546.4,1598,547.9,1598.7,549,1599.8L549,1599.8z"/>
		</g>
	</g>
</g>
</svg>
